<svg preserveAspectRatio="none" width="100%" height="100%" overflow="visible" style="display: block;" viewBox="0 0 24 24" fill="none" xmlns="http://www.w3.org/2000/svg">
<g id="Icon"><g transform="translate(1.59 1.919) scale(0.954197 0.952757)"><g ><path d="M15.9148 0.500075C11.7367 3.0117 3.07236 8.50936 1.83993 10.407C1.27888 11.2709 0.980095 12.6312 0.782257 14.4293C0.545515 16.5811 0.471327 19.2312 0.509475 20.6628M0.782257 14.4293C1.07435 15.24 1.99089 16.377 2.34557 16.4654M7.45588 20.6628C7.51193 19.8759 7.54755 17.9716 7.24153 16.6504C6.85901 14.9989 9.56217 13.9826 11.5003 13.9826C13.0508 13.9826 16.4585 13.0805 17.9971 12.5723" stroke="#806562" stroke-linecap="round" stroke-width="1.0488"/><path d="M8.55661 9.98274L7.75276 10.6087C7.33601 10.9333 7.26224 11.533 7.58799 11.9482C7.91374 12.3634 8.51565 12.4369 8.9324 12.1124L12.8071 9.09487M7.60626 10.7362L6.80475 11.3453C6.39894 11.6537 5.81902 11.5759 5.50948 11.1716C5.19994 10.7673 5.27799 10.1895 5.68381 9.88109L10.1562 6.48229M12.8071 9.09487L10.6934 7.67786C10.2869 7.40539 10.0938 6.93528 10.1562 6.48229C10.1811 6.30109 10.2469 6.12262 10.3563 5.96064C10.7392 5.39371 11.5108 5.24335 12.0799 5.62481L20.598 11.3352C21.167 11.7166 21.3179 12.4854 20.9351 13.0524C20.5522 13.6193 19.7805 13.7697 19.2115 13.3882L12.8071 9.09487Z" stroke="#806562" stroke-width="1.0488"/><path d="M16.2083 3.41761L16.2198 3.42703M18.0573 4.93181L18.0688 4.94124M19.9058 6.44614L19.9173 6.45557M17.6104 2.35962L17.6219 2.36904M19.4594 3.87382L19.4709 3.88325M21.3079 5.38815L21.3194 5.39758M14.6751 4.73691L14.6867 4.74633M16.5237 6.25119L16.5352 6.26062M18.3722 7.76565L18.3837 7.77508" stroke="#806562" stroke-linecap="round" stroke-width="1.0488"/></g></g></g>
</svg>
